<svg width="200" height="242" viewBox="0 0 200 242" fill="none" xmlns="http://www.w3.org/2000/svg">
<g id="&#240;&#159;&#166;&#134; icon &#34;Storage Amazon S3&#34;">
<path id="Vector" d="M16.09 41.9342L0 49.9792V191.341L16.09 199.386L55.5783 120.646L16.09 41.9342Z" fill="#8C3123"/>
<path id="Vector_2" d="M99.9584 179.053L16.09 199.357V41.9342L99.9584 62.2383L139.594 120.881L99.9584 179.053Z" fill="#E05243"/>
<path id="Vector_3" d="M99.9584 179.053L183.797 199.357L198.296 122.649L183.797 41.9342L99.9584 62.2383V179.053Z" fill="#8C3123"/>
<path id="Vector_4" d="M183.797 41.9342L199.917 49.9792V191.341L183.797 199.386V41.9342Z" fill="#E05243"/>
<path id="Vector_5" d="M63.3876 146.696L99.9584 151.382L128.956 120.881L99.9584 90.4105L63.3876 95.0077V146.696Z" fill="#8C3123"/>
<path id="Vector_6" d="M136.529 69.9886L99.9584 76.6485L63.3876 69.9886L99.9584 0L136.529 69.9886Z" fill="#5E1F18"/>
<path id="Vector_7" d="M136.529 171.656L99.9584 164.937L63.3876 171.656L99.9584 241.645L136.529 171.656Z" fill="#F2B0A9"/>
<path id="Vector_8" d="M136.529 69.9886L99.9584 60.9416V0L136.529 18.2707V69.9886Z" fill="#E05243"/>
<path id="Vector_9" d="M63.3876 69.9886L99.9584 60.9416V0L63.3876 18.2707V69.9886Z" fill="#8C3123"/>
<path id="Vector_10" d="M99.9584 241.645L136.529 223.374V171.656L99.9584 180.703V241.645Z" fill="#E05243"/>
<path id="Vector_11" d="M99.9584 241.645L63.3876 223.374V171.656L99.9584 180.703V241.645Z" fill="#8C3123"/>
<path id="Vector_12" d="M136.529 146.696L99.9584 151.382V90.4105L136.529 95.0077V146.696Z" fill="#E05243"/>
</g>
</svg>
